<svg width="1453" height="1018" viewBox="0 0 1453 1018" fill="none" xmlns="http://www.w3.org/2000/svg">
<path d="M932.66 1016.38C759.65 847.68 585.85 678.21 412.2 508.89C439.11 482.69 465.29 457.2 492.09 431.1C640.23 571.61 785.66 715.24 931.46 857.46C984.67 805.31 1037.02 754.01 1090.65 701.45C1021.49 632.27 950.87 561.63 879.92 490.65V333.63C978.57 429.49 1076.87 525.01 1174.98 620.34C1213.98 581.86 1251.76 544.58 1290.72 506.14C1144.53 365.44 1000.39 220.4 850.86 80.21C879.36 53.04 906.74 26.94 933.29 1.62C1105.52 169.91 1279.32 339.72 1452.45 508.88C1279.92 677.32 1106.23 846.91 932.65 1016.37L932.66 1016.38Z" fill="#46BAAF"/>
<path d="M0 509.19L521.61 0C611.78 89.57 702.56 179.74 793.35 269.92V429.47C701.31 338.3 611.24 249.08 520.74 159.43C400.88 276.44 281.8 392.7 160.53 511.09L601.3 939.12L520.87 1018.01L0 509.19Z" fill="white"/>
</svg>
